# xmcd CD database file
#
# Track frame offsets:
#	150
#	16811
#	33109
#	52327
#	66569
#	82729
#	100022
#	115506
#	131733
#	152761
#	174042
#	191148
#	207930
#	224437
#	243085
#	261545
#	284300
#
# Disc length: 4015 seconds
#
# Revision: 1
# Processed by: cddbd v1.4PL0 Copyright (c) Steve Scherf et al.
# Submitted via: CDex 1.51
#
DISCID=ec0fad11
DTITLE=BLUE - GUILTY
DYEAR=2003
DGENRE=
TTITLE0=STAND UP
TTITLE1=SIGNED. SEALED. DELIVERED I'M YOURS
TTITLE2=WHEN SUMMER'S GONE
TTITLE3=BUBBLIN'
TTITLE4=TASTE IT
TTITLE5=GULITY
TTITLE6=ROCK THE NIGHT
TTITLE7=BACK IT UP
TTITLE8=BREATHE EASY
TTITLE9=WALK AWAY
TTITLE10=WHERE YOU WANT ME
TTITLE11=ALIVE
TTITLE12=I WANNA KNOW
TTITLE13=HOW A MAN'S SUPPOSED TO CHANGE
TTITLE14=NO GOODBYES
TTITLE15=THE GIFT
TTITLE16=ELEMENTS
EXTD=YEAR: 2003
EXTT0=
EXTT1=
EXTT2=
EXTT3=
EXTT4=
EXTT5=
EXTT6=
EXTT7=
EXTT8=
EXTT9=
EXTT10=
EXTT11=
EXTT12=
EXTT13=
EXTT14=
EXTT15=
EXTT16=
PLAYORDER=
